<svg width="76" height="23" viewBox="0 0 76 23" fill="none" xmlns="http://www.w3.org/2000/svg">
<path d="M9.3 22.3C7.76 22.3 6.36 22.04 5.1 21.52C3.86 20.98 2.87 20.19 2.13 19.15C1.39 18.11 0.98 16.87 0.9 15.43L0.87 14.23L0.9 13C0.96 11.56 1.36 10.32 2.1 9.28C2.86 8.24 3.86 7.45 5.1 6.91C6.36 6.37 7.76 6.1 9.3 6.1C11.26 6.1 12.9 6.46 14.22 7.18C15.54 7.88 16.51 8.7 17.13 9.64C17.77 10.58 18.09 11.36 18.09 11.98C18.09 12.18 18.01 12.36 17.85 12.52C17.69 12.66 17.5 12.73 17.28 12.73H11.43C11.05 12.73 10.76 12.53 10.56 12.13C10.4 11.81 10.24 11.58 10.08 11.44C9.94 11.3 9.73 11.23 9.45 11.23C9.01 11.23 8.7 11.39 8.52 11.71C8.36 12.03 8.27 12.51 8.25 13.15L8.22 14.32L8.25 15.28C8.29 15.96 8.39 16.45 8.55 16.75C8.71 17.03 9.01 17.17 9.45 17.17C9.77 17.17 10 17.11 10.14 16.99C10.28 16.85 10.42 16.61 10.56 16.27C10.72 15.87 11.01 15.67 11.43 15.67H17.28C17.5 15.67 17.69 15.75 17.85 15.91C18.01 16.05 18.09 16.22 18.09 16.42C18.09 16.98 17.79 17.73 17.19 18.67C16.59 19.61 15.63 20.45 14.31 21.19C13.01 21.93 11.34 22.3 9.3 22.3Z" fill="#F95861"/>
<path d="M29.6721 22C27.3121 22 25.4721 21.51 24.1521 20.53C22.8321 19.53 22.1721 17.87 22.1721 15.55V11.65H19.8021C19.5821 11.65 19.3921 11.57 19.2321 11.41C19.0721 11.25 18.9921 11.06 18.9921 10.84V7.21C18.9921 6.99 19.0721 6.8 19.2321 6.64C19.3921 6.48 19.5821 6.4 19.8021 6.4H22.1721V1.51C22.1721 1.29 22.2521 1.1 22.4121 0.939999C22.5721 0.779999 22.7621 0.699999 22.9821 0.699999H28.2321C28.4521 0.699999 28.6421 0.779999 28.8021 0.939999C28.9621 1.1 29.0421 1.29 29.0421 1.51V6.4H32.8221C33.0421 6.4 33.2321 6.48 33.3921 6.64C33.5521 6.8 33.6321 6.99 33.6321 7.21V10.84C33.6321 11.06 33.5521 11.25 33.3921 11.41C33.2321 11.57 33.0421 11.65 32.8221 11.65H29.0421V14.95C29.0421 15.95 29.4721 16.45 30.3321 16.45H33.0621C33.2821 16.45 33.4721 16.53 33.6321 16.69C33.7921 16.85 33.8721 17.04 33.8721 17.26V21.19C33.8721 21.41 33.7921 21.6 33.6321 21.76C33.4721 21.92 33.2821 22 33.0621 22H29.6721Z" fill="#6979F8"/>
<path d="M43.9289 22.3C42.3889 22.3 40.9889 22.04 39.7289 21.52C38.4889 20.98 37.4989 20.19 36.7589 19.15C36.0189 18.11 35.6089 16.87 35.5289 15.43L35.4989 14.23L35.5289 13C35.5889 11.56 35.9889 10.32 36.7289 9.28C37.4889 8.24 38.4889 7.45 39.7289 6.91C40.9889 6.37 42.3889 6.1 43.9289 6.1C45.8889 6.1 47.5289 6.46 48.8489 7.18C50.1689 7.88 51.1389 8.7 51.7589 9.64C52.3989 10.58 52.7189 11.36 52.7189 11.98C52.7189 12.18 52.6389 12.36 52.4789 12.52C52.3189 12.66 52.1289 12.73 51.9089 12.73H46.0589C45.6789 12.73 45.3889 12.53 45.1889 12.13C45.0289 11.81 44.8689 11.58 44.7089 11.44C44.5689 11.3 44.3589 11.23 44.0789 11.23C43.6389 11.23 43.3289 11.39 43.1489 11.71C42.9889 12.03 42.8989 12.51 42.8789 13.15L42.8489 14.32L42.8789 15.28C42.9189 15.96 43.0189 16.45 43.1789 16.75C43.3389 17.03 43.6389 17.17 44.0789 17.17C44.3989 17.17 44.6289 17.11 44.7689 16.99C44.9089 16.85 45.0489 16.61 45.1889 16.27C45.3489 15.87 45.6389 15.67 46.0589 15.67H51.9089C52.1289 15.67 52.3189 15.75 52.4789 15.91C52.6389 16.05 52.7189 16.22 52.7189 16.42C52.7189 16.98 52.4189 17.73 51.8189 18.67C51.2189 19.61 50.2589 20.45 48.9389 21.19C47.6389 21.93 45.9689 22.3 43.9289 22.3Z" fill="white"/>
<rect x="55" y="16" width="16" height="6" rx="1" fill="white"/>
</svg>
